<?xml version="1.0" encoding="UTF-8" standalone="no"?>
<!-- Created with Inkscape (http://www.inkscape.org/) -->

<svg
   width="25mm"
   height="25mm"
   viewBox="0 0 25 25"
   version="1.1"
   id="svg5"
   xmlns="http://www.w3.org/2000/svg"
   xmlns:svg="http://www.w3.org/2000/svg">
  <defs
     id="defs2" />
  <g
     id="layer1">
    <path
       id="path234"
       style="fill:#333333;stroke-width:0.059686;stroke-linecap:square"
       d="M 8.3639238,1.3236266 C 4.7564223,1.6084738 1.6313294,4.7089374 1.3305178,8.3204559 0.92855861,11.829584 3.2003696,15.443344 6.5913979,16.500032 c 2.2367115,0.803851 4.7668571,0.430774 6.7794041,-0.790498 0.156022,-0.144602 0.378481,-0.240876 0.506928,-0.216966 2.684237,2.698225 5.468315,5.499394 8.193225,8.223637 l 1.644531,-1.644531 C 20.966777,19.322336 18.218158,16.572908 15.469392,13.823627 16.855403,11.637219 17.426284,8.8217099 16.431764,6.3637885 15.264156,3.1606038 11.85803,0.97739616 8.4546936,1.3189254 Z M 9.1666582,3.6087828 C 11.834104,3.6087793 14.270994,5.776651 14.56667,8.4310301 14.994724,11.318225 12.733807,14.284113 9.8118081,14.565999 7.010783,14.959338 4.102098,12.878011 3.7023346,10.050042 3.2020428,7.4183601 4.9061488,4.5807306 7.5056221,3.8685444 8.0415687,3.6998357 8.6057611,3.6229577 9.1666582,3.6087828 Z" />
    <rect
       style="fill:#333333;stroke-width:0.0419436;stroke-linecap:square"
       id="rect1254"
       width="5.283638"
       height="1.0567276"
       x="6.4446168"
       y="8.5587902" />
    <rect
       style="fill:#333333;stroke-width:0.0419436;stroke-linecap:square"
       id="rect1254-7"
       width="5.283638"
       height="1.0567276"
       x="6.4453349"
       y="-9.6147995"
       transform="rotate(90)" />
  </g>
</svg>
