<?xml version="1.0" encoding="UTF-8" standalone="no"?>
<!-- Created with Inkscape (http://www.inkscape.org/) -->

<svg
   width="120mm"
   height="20mm"
   viewBox="0 0 120 20"
   version="1.1"
   id="svg5"
   sodipodi:docname="cap-height.svg"
   inkscape:version="1.2.1 (9c6d41e410, 2022-07-14)"
   xmlns:inkscape="http://www.inkscape.org/namespaces/inkscape"
   xmlns:sodipodi="http://sodipodi.sourceforge.net/DTD/sodipodi-0.dtd"
   xmlns="http://www.w3.org/2000/svg"
   xmlns:svg="http://www.w3.org/2000/svg">
  <sodipodi:namedview
     id="namedview218"
     pagecolor="#505050"
     bordercolor="#eeeeee"
     borderopacity="1"
     inkscape:showpageshadow="0"
     inkscape:pageopacity="0"
     inkscape:pagecheckerboard="0"
     inkscape:deskcolor="#505050"
     inkscape:document-units="mm"
     showgrid="false"
     inkscape:zoom="1.4142136"
     inkscape:cx="-14.495689"
     inkscape:cy="95.459413"
     inkscape:window-width="1920"
     inkscape:window-height="1009"
     inkscape:window-x="1912"
     inkscape:window-y="-6"
     inkscape:window-maximized="1"
     inkscape:current-layer="svg5" />
  <defs
     id="defs2">
    <rect
       x="0"
       y="6.054163"
       width="78.95591"
       height="29.405935"
       id="rect1115" />
    <rect
       x="89.777794"
       y="385.27158"
       width="365.65128"
       height="161.12437"
       id="rect316" />
    <rect
       x="134.07213"
       y="401.02728"
       width="176.28552"
       height="70.157478"
       id="rect310" />
    <rect
       x="90.966904"
       y="349.00375"
       width="442.34885"
       height="205.12144"
       id="rect304" />
    <rect
       x="177.77193"
       y="419.75577"
       width="118.31643"
       height="75.508476"
       id="rect298" />
    <rect
       x="230.09274"
       y="500.31796"
       width="82.345856"
       height="74.319366"
       id="rect292" />
    <rect
       x="218.7962"
       y="469.69839"
       width="240.2002"
       height="271.11703"
       id="rect236" />
  </defs>
  <g
     id="layer1"
     transform="translate(10,0.22568982)">
    <g
       id="g5553"
       transform="translate(-5.0032654,-6.8965032)">
      <text
         xml:space="preserve"
         transform="scale(0.26458333)"
         id="text234"
         style="font-size:56.3735px;font-family:'Script MT Bold';-inkscape-font-specification:'Script MT Bold, Normal';white-space:pre;shape-inside:url(#rect236);display:inline;opacity:0.98;fill:#0000ff;stroke-width:0.574517;stroke-linecap:square" />
      <text
         xml:space="preserve"
         transform="scale(0.26458333)"
         id="text290"
         style="font-size:56.3735px;font-family:'Script MT Bold';-inkscape-font-specification:'Script MT Bold, Normal';white-space:pre;shape-inside:url(#rect292);display:inline;opacity:0.98;fill:#0000ff;stroke-width:0.574517;stroke-linecap:square" />
      <text
         xml:space="preserve"
         transform="scale(0.26458333)"
         id="text296"
         style="font-size:56.3735px;font-family:'Script MT Bold';-inkscape-font-specification:'Script MT Bold, Normal';white-space:pre;shape-inside:url(#rect298);display:inline;opacity:0.98;fill:#0000ff;stroke-width:0.574517;stroke-linecap:square" />
      <text
         xml:space="preserve"
         transform="scale(0.26458333)"
         id="text302"
         style="font-size:56.3735px;font-family:'Script MT Bold';-inkscape-font-specification:'Script MT Bold, Normal';white-space:pre;shape-inside:url(#rect304);display:inline;opacity:0.98;fill:#0000ff;stroke-width:0.574517;stroke-linecap:square" />
      <text
         xml:space="preserve"
         transform="scale(0.26458333)"
         id="text308"
         style="font-size:56.3735px;font-family:'Script MT Bold';-inkscape-font-specification:'Script MT Bold, Normal';white-space:pre;shape-inside:url(#rect310);display:inline;opacity:0.98;fill:#0000ff;stroke-width:0.574517;stroke-linecap:square" />
      <g
         id="g4802">
        <rect
           style="opacity:0.98;fill:#1a1a1a;stroke-width:0.0874559;stroke-linecap:square"
           id="rect528"
           width="81.40757"
           height="0.41657153"
           x="14.29948"
           y="20.67757" />
        <rect
           style="opacity:0.98;fill:#1a1a1a;stroke-width:0.0874559;stroke-linecap:square"
           id="rect528-2"
           width="81.40757"
           height="0.41657153"
           x="14.29948"
           y="12.386204" />
        <rect
           style="opacity:0.98;fill:#0000ff;stroke-width:0.0528262;stroke-linecap:square;fill-opacity:1"
           id="rect528-2-3"
           width="81.40757"
           height="0.15198819"
           x="14.29948"
           y="9.9298744" />
        <rect
           style="opacity:0.98;fill:#1a1a1a;stroke-width:0.0528262;stroke-linecap:square"
           id="rect528-2-3-4"
           width="81.40757"
           height="0.15198819"
           x="14.29948"
           y="23.698978" />
      </g>
      <g
         id="g5927"
         style="display:none">
        <path
           id="text314"
           style="font-size:56.3735px;font-family:'Script MT Bold';-inkscape-font-specification:'Script MT Bold, Normal';white-space:pre;shape-inside:url(#rect316);opacity:0.98;fill:#000000;fill-opacity:1;stroke-width:0.152008;stroke-linecap:square"
           d="m 66.629733,12.654525 c -0.694306,0 -1.313458,0.167796 -1.857251,0.502812 -0.538937,0.335015 -0.96122,0.81068 -1.267105,1.427302 -0.301027,0.616622 -0.451652,1.311085 -0.451652,2.083078 v 0.09457 c 0,1.223533 0.330317,2.206831 0.990637,2.949691 0.665176,0.74286 1.531676,1.114145 2.599841,1.114145 0.708874,0 1.335162,-0.170178 1.878954,-0.510048 0.548651,-0.339871 0.969071,-0.813155 1.260391,-1.420069 0.296172,-0.611767 0.443899,-1.300954 0.443899,-2.068089 v -0.09509 c 0,-1.233245 -0.332695,-2.221299 -0.997871,-2.964159 -0.66032,-0.74286 -1.52682,-1.114145 -2.599843,-1.114145 z m 4.857586,0.145727 v 1.114145 h 4.282427 l -4.347538,5.775357 v 0.990637 h 6.255948 V 19.580716 H 73.068101 L 77.459565,13.7542 v -0.953948 z m -4.857586,0.961181 c 0.679744,0 1.223581,0.269799 1.631426,0.808736 0.4127,0.534083 0.619083,1.233305 0.619083,2.097548 0,0.966203 -0.201623,1.718805 -0.604613,2.257743 -0.402989,0.534082 -0.94683,0.800986 -1.631426,0.800986 -0.679741,0 -1.223579,-0.264522 -1.631423,-0.79375 -0.40299,-0.529227 -0.6041,-1.230828 -0.6041,-2.104781 0,-0.985626 0.203489,-1.743504 0.611333,-2.272732 0.407845,-0.529227 0.944544,-0.79375 1.60972,-0.79375 z" />
        <path
           id="path1618"
           style="font-size:56.3735px;font-family:'Script MT Bold';-inkscape-font-specification:'Script MT Bold, Normal';white-space:pre;shape-inside:url(#rect316);opacity:0.98;fill:#000000;fill-opacity:1;stroke-width:0.152008;stroke-linecap:square"
           d="m 41.525323,12.654525 c -0.694306,0 -1.313458,0.167796 -1.85725,0.502812 -0.538938,0.335015 -0.961224,0.81068 -1.267106,1.427302 -0.30103,0.616622 -0.451652,1.311085 -0.451652,2.083078 v 0.09457 c 0,1.223533 0.330317,2.206831 0.990637,2.949691 0.665176,0.74286 1.531676,1.114145 2.599841,1.114145 0.708872,0 1.335678,-0.170178 1.879471,-0.510048 0.54865,-0.339871 0.968554,-0.813155 1.259871,-1.420069 0.296175,-0.611767 0.443902,-1.300954 0.443902,-2.068089 v -0.09509 c 0,-1.233245 -0.332179,-2.221299 -0.997354,-2.964159 -0.660321,-0.74286 -1.527339,-1.114145 -2.60036,-1.114145 z m 0,1.106908 c 0.679741,0 1.223582,0.269799 1.631426,0.808736 0.4127,0.534083 0.619083,1.233305 0.619083,2.097548 0,0.966203 -0.201626,1.718805 -0.604615,2.257743 -0.40299,0.534082 -0.946828,0.800986 -1.631424,0.800986 -0.679741,0 -1.223063,-0.264522 -1.630907,-0.79375 -0.402992,-0.529227 -0.604616,-1.230828 -0.604616,-2.104781 0,-0.985626 0.204005,-1.743504 0.611849,-2.272732 0.407845,-0.529227 0.944028,-0.79375 1.609204,-0.79375 z" />
        <path
           id="path1616"
           style="font-size:56.3735px;font-family:'Script MT Bold';-inkscape-font-specification:'Script MT Bold, Normal';white-space:pre;shape-inside:url(#rect316);opacity:0.98;fill:#0000ff;fill-opacity:1;stroke-width:0.152008;stroke-linecap:square"
           d="m 80.957542,21.094321 -0.111622,0.299722 c -0.165079,0.490384 -0.376222,0.827839 -0.633553,1.012341 -0.252476,0.184502 -0.606586,0.276987 -1.062985,0.276987 l -0.364318,-0.02946 v 1.092441 l 0.502296,0.09508 0.25528,0.0217 c 1.068166,0 1.847459,-0.655357 2.337843,-1.966288 l 0.279569,-0.802534 z" />
        <path
           id="path1614"
           style="font-size:56.3735px;font-family:'Script MT Bold';-inkscape-font-specification:'Script MT Bold, Normal';white-space:pre;shape-inside:url(#rect316);opacity:0.98;fill:#000000;fill-opacity:1;stroke-width:0.152008;stroke-linecap:square"
           d="m 80.957542,21.094321 h 1.20251 l 2.888197,-8.294069 h -1.441773 l -1.835547,5.906617 -1.966288,-5.906617 h -1.471228 l 2.811197,7.792808 z" />
        <path
           id="path1612"
           style="font-size:56.3735px;font-family:'Script MT Bold';-inkscape-font-specification:'Script MT Bold, Normal';white-space:pre;shape-inside:url(#rect316);opacity:0.98;fill:#0000ff;fill-opacity:1;stroke-width:0.152008;stroke-linecap:square"
           d="m 51.750022,21.094321 c -0.07413,0.423016 -0.242742,0.769323 -0.509014,1.035595 -0.364146,0.369004 -0.874157,0.553455 -1.529622,0.553455 -0.83511,0 -1.541468,-0.357007 -2.119249,-1.070737 l -0.699183,0.80822 c 0.286462,0.42241 0.701609,0.755108 1.245402,0.997871 0.543793,0.242766 1.099529,0.364321 1.6676,0.364321 1.019611,0 1.830869,-0.294111 2.432926,-0.8816 0.481258,-0.46586 0.768524,-1.069554 0.868164,-1.807125 z" />
        <path
           id="path1610"
           style="font-size:56.3735px;font-family:'Script MT Bold';-inkscape-font-specification:'Script MT Bold, Normal';white-space:pre;shape-inside:url(#rect316);opacity:0.98;fill:#000000;fill-opacity:1;stroke-width:0.152008;stroke-linecap:square"
           d="m 51.750022,21.094321 h 1.357024 c 0.02601,-0.192577 0.04186,-0.391967 0.04186,-0.603065 v -7.691004 h -1.230932 l -0.06511,0.87385 c -0.538938,-0.679743 -1.289158,-1.019577 -2.250509,-1.019577 -0.937072,0 -1.689671,0.364146 -2.257742,1.092441 -0.568068,0.723437 -0.852144,1.699596 -0.852144,2.927985 0,1.2818 0.284076,2.294165 0.852144,3.037025 0.572926,0.74286 1.320768,1.114145 2.243275,1.114145 0.932217,0 1.667645,-0.310767 2.206583,-0.932244 v 0.677479 c 0,0.186539 -0.01585,0.359756 -0.04444,0.522965 z m 7.10861,-8.439796 c -0.97106,0 -1.757489,0.378939 -2.359546,1.136364 l -0.04341,-0.990637 h -1.274857 v 7.880139 h 1.347721 v -5.61516 c 0.184502,-0.378714 0.44137,-0.68472 0.77153,-0.917773 0.330158,-0.233056 0.713857,-0.349332 1.150832,-0.349332 0.53894,0 0.934532,0.135829 1.187008,0.407725 0.257331,0.271897 0.388919,0.691801 0.393774,1.259872 v 5.214668 h 1.347206 v -5.207434 c -0.01458,-1.879 -0.854893,-2.818432 -2.52026,-2.818432 z m -8.921419,1.143601 c 0.8254,0 1.444551,0.376042 1.857251,1.128612 v 3.597714 c -0.398135,0.771991 -1.022043,1.158068 -1.871721,1.158068 -0.655466,0 -1.165474,-0.252108 -1.529622,-0.75706 -0.364146,-0.509805 -0.546219,-1.209027 -0.546219,-2.097545 0,-1.000192 0.184451,-1.755172 0.553455,-2.264979 0.369001,-0.509807 0.881391,-0.76481 1.536856,-0.76481 z" />
        <path
           id="path1608"
           style="font-size:56.3735px;font-family:'Script MT Bold';-inkscape-font-specification:'Script MT Bold, Normal';white-space:pre;shape-inside:url(#rect316);opacity:0.98;fill:#0000ff;fill-opacity:1;stroke-width:0.152008;stroke-linecap:square"
           d="m 25.036924,21.094321 v 2.615861 h 1.347205 v -2.615861 z" />
        <path
           id="path1606"
           style="font-size:56.3735px;font-family:'Script MT Bold';-inkscape-font-specification:'Script MT Bold, Normal';white-space:pre;shape-inside:url(#rect316);opacity:0.98;fill:#000000;fill-opacity:1;stroke-width:0.152008;stroke-linecap:square"
           d="m 25.036924,21.094321 h 1.347205 v -1.17874 c 0.548648,0.606912 1.30125,0.91054 2.257743,0.91054 0.937072,0 1.680157,-0.366525 2.228805,-1.099675 0.548648,-0.73315 0.822687,-1.699273 0.822687,-2.898531 v -0.124024 c 0,-1.272087 -0.276418,-2.264902 -0.829921,-2.978631 -0.54865,-0.713727 -1.296493,-1.070735 -2.243275,-1.070735 -0.975916,0 -1.738551,0.339834 -2.287199,1.019577 l -0.06511,-0.87385 H 25.036924 Z M 36.61658,12.654525 c -0.810837,0 -1.437124,0.352248 -1.878957,1.056267 l -0.0217,-0.91054 h -1.311031 v 7.880139 h 1.347205 v -5.593456 c 0.315595,-0.75257 0.915194,-1.128615 1.798857,-1.128615 0.237908,0 0.459087,0.01667 0.663009,0.05064 v -1.252635 c -0.135948,-0.06797 -0.335193,-0.101804 -0.597379,-0.101804 z m -8.396904,1.143601 c 0.660321,0 1.179849,0.257384 1.55856,0.772043 0.378714,0.514663 0.567926,1.216264 0.567926,2.104782 0,1.009901 -0.191591,1.77202 -0.57516,2.286683 -0.378714,0.509807 -0.891103,0.764812 -1.536856,0.764812 -0.830257,0 -1.447027,-0.359389 -1.850017,-1.077971 V 14.88333 c 0.407845,-0.723439 1.019855,-1.085204 1.835547,-1.085204 z" />
      </g>
    </g>
    <path
       id="path6058"
       style="font-style:normal;font-variant:normal;font-weight:normal;font-stretch:normal;font-size:14.912px;font-family:Roboto;-inkscape-font-specification:'Roboto, Normal';font-variant-ligatures:normal;font-variant-caps:normal;font-variant-numeric:normal;font-variant-east-asian:normal;opacity:0.98;fill:#000000;fill-opacity:1;stroke-width:0.151973;stroke-linecap:square"
       d="M 72.618306,2.596224 V 5.4895874 6.70295 c -0.53881,-0.6310403 -1.269307,-0.9467122 -2.191597,-0.9467122 -0.927144,0 -1.677201,0.3690773 -2.249992,1.1069092 -0.57279,0.7329776 -0.859379,1.7037986 -0.859379,2.9124837 v 0.1018026 c 0,1.2038307 0.286589,2.1794127 0.859379,2.9269527 0.577645,0.747541 1.32294,1.121379 2.235523,1.121379 0.961123,0 1.710663,-0.329955 2.249475,-0.99012 l 0.06563,0.844392 h 1.238167 V 5.4895874 2.596224 Z m 6.822323,0 -1.405082,2.1409545 h 1.084688 L 81.072054,2.596224 Z M 56.902987,3.0334066 c -0.250132,0.00453 -0.441423,0.079533 -0.573092,0.2253092 -0.131062,0.1504789 -0.19637,0.3350175 -0.19637,0.5534546 0,0.2184371 0.06531,0.4005951 0.19637,0.5462199 0.135917,0.1456248 0.335255,0.2185913 0.59738,0.2185913 0.262123,0 0.460947,-0.072966 0.596862,-0.2185913 0.135917,-0.1456248 0.204122,-0.3277828 0.204122,-0.5462199 0,-0.2184371 -0.0682,-0.4029757 -0.204122,-0.5534546 -0.135915,-0.1504788 -0.334739,-0.2253092 -0.596862,-0.2253092 -0.0082,0 -0.01622,-1.462e-4 -0.02429,0 z M 10.713041,3.1786174 v 1.1508341 h 5.71593 l -0.802018,1.1601359 -5.00848,7.2424516 v 1.047998 h 7.717875 V 12.636955 H 12.271086 L 17.215487,5.4895874 18.103805,4.2054281 V 3.1786174 Z m 12.290723,2.5776204 c -0.572791,0 -1.099187,0.106811 -1.579749,0.3203939 -0.475707,0.2135829 -0.854306,0.5049326 -1.135848,0.8738484 -0.276686,0.3640619 -0.415478,0.7426613 -0.415478,1.135848 h 1.354439 c 0,-0.3446451 0.162597,-0.6383754 0.487826,-0.8810831 0.325227,-0.2427079 0.72815,-0.3638021 1.208711,-0.3638021 0.548521,0 0.963862,0.1406553 1.245402,0.4221964 0.281542,0.2766869 0.422197,0.6505254 0.422197,1.1213786 V 9.0035848 H 23.28075 c -1.131019,0 -2.009829,0.228422 -2.636015,0.6847127 -0.621333,0.4514375 -0.932243,1.0870235 -0.932243,1.9073775 0,0.674727 0.247982,1.233104 0.743107,1.674833 0.499978,0.436873 1.137947,0.655257 1.914612,0.655257 0.868894,0 1.616571,-0.325194 2.242757,-0.975651 0.04854,0.398041 0.111469,0.674591 0.189136,0.829923 h 1.412833 V 13.663765 C 26.03048,13.2366 25.937952,12.661559 25.937952,11.938289 V 8.3121541 C 25.918535,7.5160724 25.652024,6.8923872 25.137484,6.4409505 24.622943,5.9846598 23.911491,5.7562378 23.003764,5.7562378 Z m 8.628414,0 c -0.975685,0 -1.737645,0.3399948 -2.286166,1.019576 l -0.06563,-0.8738485 h -1.230416 v 9.5100137 h 1.346688 v -2.396236 c 0.548521,0.606768 1.300959,0.910022 2.257227,0.910022 0.936851,0 1.679767,-0.366179 2.228288,-1.099158 0.548518,-0.732976 0.822688,-1.699038 0.822688,-2.8980141 V 9.8045695 c 0,-1.2717878 -0.276551,-2.2645524 -0.829923,-2.9781128 -0.54852,-0.7135604 -1.296198,-1.0702189 -2.242757,-1.0702189 z m 8.002095,0 c -0.694143,0 -1.313068,0.1673584 -1.856734,0.5022949 -0.53881,0.3349366 -0.961294,0.8108257 -1.267106,1.4273031 -0.300958,0.6164773 -0.451135,1.3107501 -0.451135,2.0825602 v 0.094568 c 0,1.223247 0.329956,2.206489 0.99012,2.949174 0.665018,0.742685 1.531411,1.113627 2.599325,1.113627 0.708705,0 1.334774,-0.169738 1.878438,-0.50953 0.548518,-0.339789 0.968624,-0.8133 1.259871,-1.420068 0.296104,-0.611622 0.443901,-1.300619 0.443901,-2.067574 V 9.834025 c 0,-1.2329547 -0.332337,-2.2209583 -0.997355,-2.9636434 C 41.573432,6.1276964 40.707041,5.7562378 39.634273,5.7562378 Z m 23.212537,0 c -0.626186,0 -1.208886,0.1750164 -1.747697,0.5245158 -0.533958,0.3446451 -0.951162,0.8252946 -1.25212,1.4417724 -0.296104,0.6116238 -0.444417,1.307759 -0.444417,2.0892782 v 0.2475298 c 0,1.174706 0.335233,2.114064 1.005106,2.817916 0.669875,0.698998 1.538645,1.048515 2.60656,1.048515 1.32033,0 2.310712,-0.507352 2.970878,-1.521871 l -0.822689,-0.640271 c -0.247562,0.320375 -0.536531,0.577363 -0.866614,0.771529 -0.330083,0.194167 -0.733004,0.291455 -1.208712,0.291455 -0.669873,0 -1.222972,-0.237944 -1.659847,-0.713651 -0.432019,-0.480562 -0.658061,-1.109008 -0.677478,-1.885673 h 5.337142 V 9.6665934 c 0,-1.2572266 -0.283691,-2.2232865 -0.851627,-2.8980143 C 64.667358,6.0938513 63.871037,5.7562378 62.84681,5.7562378 Z m -18.632455,0.1457275 2.286166,7.8780717 h 1.091923 l 1.863969,-5.9701778 1.915128,5.9701778 h 1.09244 l 2.2934,-7.8780717 h -1.347204 l -1.51412,6.0218547 -1.87172,-6.0218547 h -1.084689 l -1.83503,5.8978317 -1.550809,-5.8978317 z m 12.028207,0 v 7.8780717 h 1.347204 V 5.9019653 Z m 19.499585,0 v 1.1141439 h 4.281392 l -4.347021,5.7738078 v 0.99012 h 6.254398 V 12.68088 h -4.609021 l 4.39043,-5.8249677 V 5.9019653 Z M 39.634273,6.863147 c 0.679583,0 1.223161,0.2694084 1.630908,0.8082194 0.412604,0.5339566 0.619084,1.2329906 0.619084,2.0970296 0,0.965976 -0.201721,1.718415 -0.604614,2.257227 -0.402896,0.533955 -0.946474,0.800984 -1.630908,0.800984 -0.679583,0 -1.223159,-0.264646 -1.630909,-0.79375 -0.402893,-0.529101 -0.604614,-1.230517 -0.604614,-2.1042641 0,-0.9853928 0.204102,-1.7425935 0.611849,-2.2716959 0.40775,-0.5291027 0.944186,-0.79375 1.609204,-0.79375 z m 23.212537,0 c 0.563082,0 1.009887,0.1892996 1.33997,0.567924 0.330082,0.37377 0.514104,0.9030638 0.552938,1.5875 V 9.1203735 H 60.793705 C 60.88108,8.4068125 61.108986,7.8531965 61.477901,7.4600098 61.846817,7.0619689 62.303144,6.863147 62.84681,6.863147 Z M 31.231685,6.899321 c 0.660166,0 1.17942,0.2575057 1.558045,0.7720459 0.378622,0.5145401 0.567924,1.2159545 0.567924,2.1042643 0,1.0096628 -0.19168,1.7716258 -0.575159,2.2861658 -0.378624,0.509686 -0.890739,0.764811 -1.53634,0.764811 -0.83006,0 -1.446604,-0.359556 -1.8495,-1.077971 V 7.9845256 C 29.804405,7.2612569 30.416188,6.89932 31.231685,6.899321 Z m 39.529887,0 c 0.834915,0 1.45384,0.3714578 1.856734,1.1141439 v 3.6189001 c -0.393186,0.766956 -1.016872,1.150317 -1.871203,1.150317 -0.650457,0 -1.160189,-0.252228 -1.529106,-0.757059 -0.368915,-0.504833 -0.553454,-1.203865 -0.553454,-2.0970296 0,-0.9999563 0.184539,-1.7547747 0.553454,-2.2644612 0.368917,-0.5096865 0.88341,-0.7648112 1.543575,-0.7648112 z M 23.535514,9.9575317 h 1.05575 v 1.6164393 c -0.169896,0.349498 -0.444064,0.633707 -0.822689,0.852144 -0.378625,0.218437 -0.779165,0.327628 -1.201477,0.327628 -0.441729,0 -0.803664,-0.11923 -1.085205,-0.357084 -0.281541,-0.237853 -0.422197,-0.567809 -0.422197,-0.99012 0,-0.965977 0.825405,-1.4490073 2.475818,-1.4490073 z" />
    <path
       id="path6048"
       style="font-style:normal;font-variant:normal;font-weight:normal;font-stretch:normal;font-size:14.912px;font-family:Roboto;-inkscape-font-specification:'Roboto, Normal';font-variant-ligatures:normal;font-variant-caps:normal;font-variant-numeric:normal;font-variant-east-asian:normal;opacity:0.98;fill:#000000;fill-opacity:1;stroke-width:0.151973;stroke-linecap:square"
       d="m 28.049967,15.411979 v 1.397331 h 1.346688 v -1.397331 z" />
  </g>
  <text
     xml:space="preserve"
     transform="matrix(0.26458333,0,0,0.26458333,2.6885098,-1.8542921)"
     id="text1113"
     style="font-size:12px;font-family:Roboto;-inkscape-font-specification:'Roboto, Normal';white-space:pre;shape-inside:url(#rect1115);display:inline;opacity:0.98;fill:#0000ff;stroke-width:0.574517;stroke-linecap:square"><tspan
       x="0"
       y="16.554688"
       id="tspan463">wysokość
</tspan><tspan
       x="0"
       y="31.554688"
       id="tspan465">wersalików</tspan></text>
</svg>
