<?xml version="1.0" encoding="UTF-8" standalone="no"?>
<!-- Created with Inkscape (http://www.inkscape.org/) -->

<svg
   width="100mm"
   height="20mm"
   viewBox="0 0 100 20"
   version="1.1"
   id="svg5"
   inkscape:version="1.2.1 (9c6d41e410, 2022-07-14)"
   sodipodi:docname="tekst example.svg"
   inkscape:export-filename="teksrc.svg"
   inkscape:export-xdpi="96"
   inkscape:export-ydpi="96"
   xmlns:inkscape="http://www.inkscape.org/namespaces/inkscape"
   xmlns:sodipodi="http://sodipodi.sourceforge.net/DTD/sodipodi-0.dtd"
   xmlns="http://www.w3.org/2000/svg"
   xmlns:svg="http://www.w3.org/2000/svg">
  <sodipodi:namedview
     id="namedview7"
     pagecolor="#505050"
     bordercolor="#eeeeee"
     borderopacity="1"
     inkscape:showpageshadow="0"
     inkscape:pageopacity="0"
     inkscape:pagecheckerboard="0"
     inkscape:deskcolor="#505050"
     inkscape:document-units="mm"
     showgrid="false"
     inkscape:zoom="2.8284271"
     inkscape:cx="192.15627"
     inkscape:cy="65.407377"
     inkscape:window-width="1920"
     inkscape:window-height="1009"
     inkscape:window-x="1912"
     inkscape:window-y="-6"
     inkscape:window-maximized="1"
     inkscape:current-layer="layer1" />
  <defs
     id="defs2">
    <rect
       x="89.777794"
       y="385.27158"
       width="365.65128"
       height="161.12437"
       id="rect316" />
    <rect
       x="134.07213"
       y="401.02728"
       width="176.28552"
       height="70.157478"
       id="rect310" />
    <rect
       x="90.966904"
       y="349.00375"
       width="442.34885"
       height="205.12144"
       id="rect304" />
    <rect
       x="177.77193"
       y="419.75577"
       width="118.31643"
       height="75.508476"
       id="rect298" />
    <rect
       x="230.09274"
       y="500.31796"
       width="82.345856"
       height="74.319366"
       id="rect292" />
    <rect
       x="218.7962"
       y="469.69839"
       width="240.2002"
       height="271.11703"
       id="rect236" />
  </defs>
  <g
     inkscape:label="Warstwa 1"
     inkscape:groupmode="layer"
     id="layer1">
    <g
       id="g5553"
       transform="translate(-5.0032654,-6.8965032)">
      <text
         xml:space="preserve"
         transform="scale(0.26458333)"
         id="text234"
         style="font-size:56.3735px;font-family:'Script MT Bold';-inkscape-font-specification:'Script MT Bold, Normal';white-space:pre;shape-inside:url(#rect236);display:inline;opacity:0.98;fill:#0000ff;stroke-width:0.574517;stroke-linecap:square" />
      <text
         xml:space="preserve"
         transform="scale(0.26458333)"
         id="text290"
         style="font-size:56.3735px;font-family:'Script MT Bold';-inkscape-font-specification:'Script MT Bold, Normal';white-space:pre;shape-inside:url(#rect292);display:inline;opacity:0.98;fill:#0000ff;stroke-width:0.574517;stroke-linecap:square" />
      <text
         xml:space="preserve"
         transform="scale(0.26458333)"
         id="text296"
         style="font-size:56.3735px;font-family:'Script MT Bold';-inkscape-font-specification:'Script MT Bold, Normal';white-space:pre;shape-inside:url(#rect298);display:inline;opacity:0.98;fill:#0000ff;stroke-width:0.574517;stroke-linecap:square" />
      <text
         xml:space="preserve"
         transform="scale(0.26458333)"
         id="text302"
         style="font-size:56.3735px;font-family:'Script MT Bold';-inkscape-font-specification:'Script MT Bold, Normal';white-space:pre;shape-inside:url(#rect304);display:inline;opacity:0.98;fill:#0000ff;stroke-width:0.574517;stroke-linecap:square" />
      <text
         xml:space="preserve"
         transform="scale(0.26458333)"
         id="text308"
         style="font-size:56.3735px;font-family:'Script MT Bold';-inkscape-font-specification:'Script MT Bold, Normal';white-space:pre;shape-inside:url(#rect310);display:inline;opacity:0.98;fill:#0000ff;stroke-width:0.574517;stroke-linecap:square" />
      <g
         id="g4802">
        <rect
           style="opacity:0.98;fill:#1a1a1a;stroke-width:0.0874559;stroke-linecap:square"
           id="rect528"
           width="81.40757"
           height="0.41657153"
           x="14.29948"
           y="20.67757" />
        <rect
           style="opacity:0.98;fill:#1a1a1a;stroke-width:0.0874559;stroke-linecap:square"
           id="rect528-2"
           width="81.40757"
           height="0.41657153"
           x="14.29948"
           y="12.386204" />
        <rect
           style="opacity:0.98;fill:#1a1a1a;stroke-width:0.0528262;stroke-linecap:square"
           id="rect528-2-3"
           width="81.40757"
           height="0.15198819"
           x="14.29948"
           y="9.9298744" />
        <rect
           style="opacity:0.98;fill:#1a1a1a;stroke-width:0.0528262;stroke-linecap:square"
           id="rect528-2-3-4"
           width="81.40757"
           height="0.15198819"
           x="14.29948"
           y="23.698978" />
      </g>
      <path
         id="text314"
         style="font-size:56.3735px;font-family:'Script MT Bold';-inkscape-font-specification:'Script MT Bold, Normal';white-space:pre;shape-inside:url(#rect316);opacity:0.98;fill:#000000;fill-opacity:1;stroke-width:0.152008;stroke-linecap:square"
         d="m 66.629733,12.654525 c -0.694306,0 -1.313458,0.167796 -1.857251,0.502812 -0.538937,0.335015 -0.96122,0.81068 -1.267105,1.427302 -0.301027,0.616622 -0.451652,1.311085 -0.451652,2.083078 v 0.09457 c 0,1.223533 0.330317,2.206831 0.990637,2.949691 0.665176,0.74286 1.531676,1.114145 2.599841,1.114145 0.708874,0 1.335162,-0.170178 1.878954,-0.510048 0.548651,-0.339871 0.969071,-0.813155 1.260391,-1.420069 0.296172,-0.611767 0.443899,-1.300954 0.443899,-2.068089 v -0.09509 c 0,-1.233245 -0.332695,-2.221299 -0.997871,-2.964159 -0.66032,-0.74286 -1.52682,-1.114145 -2.599843,-1.114145 z m 4.857586,0.145727 v 1.114145 h 4.282427 l -4.347538,5.775357 v 0.990637 h 6.255948 V 19.580716 H 73.068101 L 77.459565,13.7542 v -0.953948 z m -4.857586,0.961181 c 0.679744,0 1.223581,0.269799 1.631426,0.808736 0.4127,0.534083 0.619083,1.233305 0.619083,2.097548 0,0.966203 -0.201623,1.718805 -0.604613,2.257743 -0.402989,0.534082 -0.94683,0.800986 -1.631426,0.800986 -0.679741,0 -1.223579,-0.264522 -1.631423,-0.79375 -0.40299,-0.529227 -0.6041,-1.230828 -0.6041,-2.104781 0,-0.985626 0.203489,-1.743504 0.611333,-2.272732 0.407845,-0.529227 0.944544,-0.79375 1.60972,-0.79375 z" />
      <path
         id="path1618"
         style="font-size:56.3735px;font-family:'Script MT Bold';-inkscape-font-specification:'Script MT Bold, Normal';white-space:pre;shape-inside:url(#rect316);opacity:0.98;fill:#000000;fill-opacity:1;stroke-width:0.152008;stroke-linecap:square"
         d="m 41.525323,12.654525 c -0.694306,0 -1.313458,0.167796 -1.85725,0.502812 -0.538938,0.335015 -0.961224,0.81068 -1.267106,1.427302 -0.30103,0.616622 -0.451652,1.311085 -0.451652,2.083078 v 0.09457 c 0,1.223533 0.330317,2.206831 0.990637,2.949691 0.665176,0.74286 1.531676,1.114145 2.599841,1.114145 0.708872,0 1.335678,-0.170178 1.879471,-0.510048 0.54865,-0.339871 0.968554,-0.813155 1.259871,-1.420069 0.296175,-0.611767 0.443902,-1.300954 0.443902,-2.068089 v -0.09509 c 0,-1.233245 -0.332179,-2.221299 -0.997354,-2.964159 -0.660321,-0.74286 -1.527339,-1.114145 -2.60036,-1.114145 z m 0,1.106908 c 0.679741,0 1.223582,0.269799 1.631426,0.808736 0.4127,0.534083 0.619083,1.233305 0.619083,2.097548 0,0.966203 -0.201626,1.718805 -0.604615,2.257743 -0.40299,0.534082 -0.946828,0.800986 -1.631424,0.800986 -0.679741,0 -1.223063,-0.264522 -1.630907,-0.79375 -0.402992,-0.529227 -0.604616,-1.230828 -0.604616,-2.104781 0,-0.985626 0.204005,-1.743504 0.611849,-2.272732 0.407845,-0.529227 0.944028,-0.79375 1.609204,-0.79375 z" />
      <path
         id="path1616"
         style="font-size:56.3735px;font-family:'Script MT Bold';-inkscape-font-specification:'Script MT Bold, Normal';white-space:pre;shape-inside:url(#rect316);opacity:0.98;fill:#0000ff;fill-opacity:1;stroke-width:0.152008;stroke-linecap:square"
         d="m 80.957542,21.094321 -0.111622,0.299722 c -0.165079,0.490384 -0.376222,0.827839 -0.633553,1.012341 -0.252476,0.184502 -0.606586,0.276987 -1.062985,0.276987 l -0.364318,-0.02946 v 1.092441 l 0.502296,0.09508 0.25528,0.0217 c 1.068166,0 1.847459,-0.655357 2.337843,-1.966288 l 0.279569,-0.802534 z" />
      <path
         id="path1614"
         style="font-size:56.3735px;font-family:'Script MT Bold';-inkscape-font-specification:'Script MT Bold, Normal';white-space:pre;shape-inside:url(#rect316);opacity:0.98;fill:#000000;fill-opacity:1;stroke-width:0.152008;stroke-linecap:square"
         d="m 80.957542,21.094321 h 1.20251 l 2.888197,-8.294069 h -1.441773 l -1.835547,5.906617 -1.966288,-5.906617 h -1.471228 l 2.811197,7.792808 z" />
      <path
         id="path1612"
         style="font-size:56.3735px;font-family:'Script MT Bold';-inkscape-font-specification:'Script MT Bold, Normal';white-space:pre;shape-inside:url(#rect316);opacity:0.98;fill:#0000ff;fill-opacity:1;stroke-width:0.152008;stroke-linecap:square"
         d="m 51.750022,21.094321 c -0.07413,0.423016 -0.242742,0.769323 -0.509014,1.035595 -0.364146,0.369004 -0.874157,0.553455 -1.529622,0.553455 -0.83511,0 -1.541468,-0.357007 -2.119249,-1.070737 l -0.699183,0.80822 c 0.286462,0.42241 0.701609,0.755108 1.245402,0.997871 0.543793,0.242766 1.099529,0.364321 1.6676,0.364321 1.019611,0 1.830869,-0.294111 2.432926,-0.8816 0.481258,-0.46586 0.768524,-1.069554 0.868164,-1.807125 z" />
      <path
         id="path1610"
         style="font-size:56.3735px;font-family:'Script MT Bold';-inkscape-font-specification:'Script MT Bold, Normal';white-space:pre;shape-inside:url(#rect316);opacity:0.98;fill:#000000;fill-opacity:1;stroke-width:0.152008;stroke-linecap:square"
         d="m 51.750022,21.094321 h 1.357024 c 0.02601,-0.192577 0.04186,-0.391967 0.04186,-0.603065 v -7.691004 h -1.230932 l -0.06511,0.87385 c -0.538938,-0.679743 -1.289158,-1.019577 -2.250509,-1.019577 -0.937072,0 -1.689671,0.364146 -2.257742,1.092441 -0.568068,0.723437 -0.852144,1.699596 -0.852144,2.927985 0,1.2818 0.284076,2.294165 0.852144,3.037025 0.572926,0.74286 1.320768,1.114145 2.243275,1.114145 0.932217,0 1.667645,-0.310767 2.206583,-0.932244 v 0.677479 c 0,0.186539 -0.01585,0.359756 -0.04444,0.522965 z m 7.10861,-8.439796 c -0.97106,0 -1.757489,0.378939 -2.359546,1.136364 l -0.04341,-0.990637 h -1.274857 v 7.880139 h 1.347721 v -5.61516 c 0.184502,-0.378714 0.44137,-0.68472 0.77153,-0.917773 0.330158,-0.233056 0.713857,-0.349332 1.150832,-0.349332 0.53894,0 0.934532,0.135829 1.187008,0.407725 0.257331,0.271897 0.388919,0.691801 0.393774,1.259872 v 5.214668 h 1.347206 v -5.207434 c -0.01458,-1.879 -0.854893,-2.818432 -2.52026,-2.818432 z m -8.921419,1.143601 c 0.8254,0 1.444551,0.376042 1.857251,1.128612 v 3.597714 c -0.398135,0.771991 -1.022043,1.158068 -1.871721,1.158068 -0.655466,0 -1.165474,-0.252108 -1.529622,-0.75706 -0.364146,-0.509805 -0.546219,-1.209027 -0.546219,-2.097545 0,-1.000192 0.184451,-1.755172 0.553455,-2.264979 0.369001,-0.509807 0.881391,-0.76481 1.536856,-0.76481 z" />
      <path
         id="path1608"
         style="font-size:56.3735px;font-family:'Script MT Bold';-inkscape-font-specification:'Script MT Bold, Normal';white-space:pre;shape-inside:url(#rect316);opacity:0.98;fill:#0000ff;fill-opacity:1;stroke-width:0.152008;stroke-linecap:square"
         d="m 25.036924,21.094321 v 2.615861 h 1.347205 v -2.615861 z" />
      <path
         id="path1606"
         style="font-size:56.3735px;font-family:'Script MT Bold';-inkscape-font-specification:'Script MT Bold, Normal';white-space:pre;shape-inside:url(#rect316);opacity:0.98;fill:#000000;fill-opacity:1;stroke-width:0.152008;stroke-linecap:square"
         d="m 25.036924,21.094321 h 1.347205 v -1.17874 c 0.548648,0.606912 1.30125,0.91054 2.257743,0.91054 0.937072,0 1.680157,-0.366525 2.228805,-1.099675 0.548648,-0.73315 0.822687,-1.699273 0.822687,-2.898531 v -0.124024 c 0,-1.272087 -0.276418,-2.264902 -0.829921,-2.978631 -0.54865,-0.713727 -1.296493,-1.070735 -2.243275,-1.070735 -0.975916,0 -1.738551,0.339834 -2.287199,1.019577 l -0.06511,-0.87385 H 25.036924 Z M 36.61658,12.654525 c -0.810837,0 -1.437124,0.352248 -1.878957,1.056267 l -0.0217,-0.91054 h -1.311031 v 7.880139 h 1.347205 v -5.593456 c 0.315595,-0.75257 0.915194,-1.128615 1.798857,-1.128615 0.237908,0 0.459087,0.01667 0.663009,0.05064 v -1.252635 c -0.135948,-0.06797 -0.335193,-0.101804 -0.597379,-0.101804 z m -8.396904,1.143601 c 0.660321,0 1.179849,0.257384 1.55856,0.772043 0.378714,0.514663 0.567926,1.216264 0.567926,2.104782 0,1.009901 -0.191591,1.77202 -0.57516,2.286683 -0.378714,0.509807 -0.891103,0.764812 -1.536856,0.764812 -0.830257,0 -1.447027,-0.359389 -1.850017,-1.077971 V 14.88333 c 0.407845,-0.723439 1.019855,-1.085204 1.835547,-1.085204 z" />
    </g>
  </g>
</svg>
