<?xml version="1.0" encoding="UTF-8" standalone="no"?>
<!-- Created with Inkscape (http://www.inkscape.org/) -->

<svg
   width="120mm"
   height="20mm"
   viewBox="0 0 120 20"
   version="1.1"
   id="svg5"
   xmlns="http://www.w3.org/2000/svg"
   xmlns:svg="http://www.w3.org/2000/svg">
  <defs
     id="defs2">
    <rect
       x="-43.75"
       y="27.25"
       width="450.25"
       height="77"
       id="rect830" />
    <rect
       x="-15"
       y="26.5"
       width="106.25"
       height="59.25"
       id="rect666" />
    <rect
       x="11.5"
       y="-1.25"
       width="172.5"
       height="86.25"
       id="rect541" />
    <rect
       x="89.777794"
       y="385.27158"
       width="365.65128"
       height="161.12437"
       id="rect316" />
    <rect
       x="134.07213"
       y="401.02728"
       width="176.28552"
       height="70.157478"
       id="rect310" />
    <rect
       x="90.966904"
       y="349.00375"
       width="442.34885"
       height="205.12144"
       id="rect304" />
    <rect
       x="177.77193"
       y="419.75577"
       width="118.31643"
       height="75.508476"
       id="rect298" />
    <rect
       x="230.09274"
       y="500.31796"
       width="82.345856"
       height="74.319366"
       id="rect292" />
    <rect
       x="218.7962"
       y="469.69839"
       width="240.2002"
       height="271.11703"
       id="rect236" />
  </defs>
  <g
     id="layer1">
    <text
       xml:space="preserve"
       transform="matrix(0.26458333,0,0,0.26458333,-5.0032654,-6.8965032)"
       id="text234"
       style="font-style:normal;font-variant:normal;font-weight:normal;font-stretch:normal;font-size:14.6667px;font-family:Roboto;-inkscape-font-specification:'Roboto, Normal';font-variant-ligatures:normal;font-variant-caps:normal;font-variant-numeric:normal;font-variant-east-asian:normal;white-space:pre;shape-inside:url(#rect236);display:inline;opacity:0.98;fill:#0000ff;stroke-width:0.574517;stroke-linecap:square" />
    <text
       xml:space="preserve"
       transform="matrix(0.26458333,0,0,0.26458333,-5.0032654,-6.8965032)"
       id="text290"
       style="font-style:normal;font-variant:normal;font-weight:normal;font-stretch:normal;font-size:14.6667px;font-family:Roboto;-inkscape-font-specification:'Roboto, Normal';font-variant-ligatures:normal;font-variant-caps:normal;font-variant-numeric:normal;font-variant-east-asian:normal;white-space:pre;shape-inside:url(#rect292);display:inline;opacity:0.98;fill:#0000ff;stroke-width:0.574517;stroke-linecap:square" />
    <text
       xml:space="preserve"
       transform="matrix(0.26458333,0,0,0.26458333,-5.0032654,-6.8965032)"
       id="text296"
       style="font-style:normal;font-variant:normal;font-weight:normal;font-stretch:normal;font-size:14.6667px;font-family:Roboto;-inkscape-font-specification:'Roboto, Normal';font-variant-ligatures:normal;font-variant-caps:normal;font-variant-numeric:normal;font-variant-east-asian:normal;white-space:pre;shape-inside:url(#rect298);display:inline;opacity:0.98;fill:#0000ff;stroke-width:0.574517;stroke-linecap:square" />
    <text
       xml:space="preserve"
       transform="matrix(0.26458333,0,0,0.26458333,-5.0032654,-6.8965032)"
       id="text302"
       style="font-style:normal;font-variant:normal;font-weight:normal;font-stretch:normal;font-size:14.6667px;font-family:Roboto;-inkscape-font-specification:'Roboto, Normal';font-variant-ligatures:normal;font-variant-caps:normal;font-variant-numeric:normal;font-variant-east-asian:normal;white-space:pre;shape-inside:url(#rect304);display:inline;opacity:0.98;fill:#0000ff;stroke-width:0.574517;stroke-linecap:square" />
    <text
       xml:space="preserve"
       transform="matrix(0.26458333,0,0,0.26458333,-5.0032654,-6.8965032)"
       id="text308"
       style="font-style:normal;font-variant:normal;font-weight:normal;font-stretch:normal;font-size:14.6667px;font-family:Roboto;-inkscape-font-specification:'Roboto, Normal';font-variant-ligatures:normal;font-variant-caps:normal;font-variant-numeric:normal;font-variant-east-asian:normal;white-space:pre;shape-inside:url(#rect310);display:inline;opacity:0.98;fill:#0000ff;stroke-width:0.574517;stroke-linecap:square" />
    <g
       id="g4802"
       transform="translate(5.0509014,-6.8904205)">
      <rect
         style="opacity:0.98;fill:#1a1a1a;stroke-width:0.0874559;stroke-linecap:square;fill-opacity:1"
         id="rect528"
         width="81.40757"
         height="0.41657153"
         x="14.29948"
         y="20.67757" />
      <rect
         style="opacity:0.98;fill:#0000ff;stroke-width:0.0874559;stroke-linecap:square"
         id="rect528-2"
         width="81.40757"
         height="0.41657153"
         x="14.29948"
         y="12.386204" />
      <rect
         style="opacity:0.98;fill:#1a1a1a;stroke-width:0.0528262;stroke-linecap:square"
         id="rect528-2-3"
         width="81.40757"
         height="0.15198819"
         x="14.29948"
         y="9.9298744" />
      <rect
         style="opacity:0.98;fill:#1a1a1a;stroke-width:0.0528262;stroke-linecap:square"
         id="rect528-2-3-4"
         width="81.40757"
         height="0.15198819"
         x="14.29948"
         y="23.698978" />
    </g>
    <path
       id="text314"
       style="font-size:56.3735px;font-family:'Script MT Bold';-inkscape-font-specification:'Script MT Bold, Normal';white-space:pre;shape-inside:url(#rect316);opacity:0.98;fill:#000000;fill-opacity:1;stroke-width:0.152008;stroke-linecap:square"
       d="m 33.670813,5.7638708 c -0.975915,0 -1.738551,0.3398337 -2.287199,1.019576 l -0.06459,-0.8738485 h -1.231449 v 8.2940677 2.615861 h 1.347204 v -2.615861 -1.178739 c 0.548648,0.606911 1.301251,0.910538 2.257743,0.910538 0.937071,0 1.680157,-0.366525 2.228805,-1.099674 0.548647,-0.733149 0.822689,-1.699274 0.822689,-2.8985315 V 9.813236 c 0,-1.2720857 -0.276421,-2.2649013 -0.829924,-2.9786295 C 35.365438,6.1208802 34.617594,5.7638708 33.670813,5.7638708 Z m 7.996411,0 c -0.810836,0 -1.437122,0.352248 -1.878955,1.0562663 l -0.02119,-0.9105388 h -1.311031 v 7.8801397 h 1.347205 V 8.1962805 c 0.315594,-0.7525693 0.915194,-1.1286133 1.798856,-1.1286133 0.237908,0 0.459087,0.016673 0.663009,0.050643 V 5.8656734 C 42.129173,5.7977034 41.929927,5.7638708 41.667741,5.7638708 Z m 4.908745,0 c -0.694306,0 -1.31346,0.167796 -1.857251,0.5028117 -0.538938,0.3350146 -0.961225,0.8106816 -1.267106,1.427303 -0.30103,0.6166214 -0.451652,1.3110848 -0.451652,2.083077 v 0.094568 c 0,1.2235325 0.330318,2.2068315 0.990637,2.9496905 0.665175,0.74286 1.531677,1.114144 2.599841,1.114144 0.708871,0 1.33568,-0.170176 1.879472,-0.510046 0.548649,-0.339871 0.968555,-0.813155 1.259871,-1.420068 0.296175,-0.611767 0.443901,-1.300957 0.443901,-2.0680914 v -0.095085 c 0,-1.2332437 -0.332181,-2.2213009 -0.997355,-2.9641601 C 48.516006,6.1351554 47.648989,5.7638708 46.575969,5.7638708 Z m 8.077543,0 c -0.937071,0 -1.689673,0.3641455 -2.257743,1.0924398 -0.568068,0.7234362 -0.852145,1.6995988 -0.852145,2.9279866 0,1.2817988 0.284077,2.2941648 0.852145,3.0370238 0.572925,0.74286 1.320767,1.114144 2.243273,1.114144 0.932217,0 1.667647,-0.310766 2.206584,-0.932243 v 0.677479 c 0,0.186538 -0.01585,0.359756 -0.04444,0.522965 h -5.16e-4 c -0.07413,0.423016 -0.242741,0.769324 -0.509013,1.035596 -0.364146,0.369003 -0.874158,0.553454 -1.529623,0.553454 -0.835109,0 -1.54147,-0.357006 -2.11925,-1.070735 L 51.943602,15.5302 c 0.286461,0.42241 0.701609,0.755109 1.245402,0.997872 0.543792,0.242766 1.099528,0.364319 1.667598,0.364319 1.01961,0 1.83087,-0.294112 2.432927,-0.8816 0.481257,-0.46586 0.768524,-1.069555 0.868164,-1.807125 0.02601,-0.192577 0.04237,-0.391966 0.04237,-0.603064 V 5.9095983 h -1.230932 l -0.06511,0.8738485 C 56.365083,6.1037045 55.614862,5.7638708 54.653512,5.7638708 Z m 9.255766,0 c -0.971059,0 -1.75749,0.3789405 -2.359546,1.1363647 l -0.04341,-0.9906372 h -1.274858 v 7.8801397 h 1.347721 V 8.1745764 c 0.184502,-0.3787137 0.44137,-0.6847207 0.771529,-0.9177735 0.330158,-0.2330558 0.71386,-0.3493327 1.150835,-0.3493327 0.538939,0 0.934532,0.1358314 1.187007,0.4077271 0.257331,0.2718967 0.38892,0.691801 0.393775,1.2598714 v 5.2146693 h 1.347204 V 8.5823034 C 66.414957,6.7033053 65.574643,5.7638708 63.909278,5.7638708 Z m 7.771102,0 c -0.694306,0 -1.313459,0.167796 -1.857251,0.5028117 -0.538937,0.3350146 -0.961222,0.8106816 -1.267107,1.427303 -0.301026,0.6166214 -0.451652,1.3110848 -0.451652,2.083077 v 0.094568 c 0,1.2235325 0.330318,2.2068315 0.990638,2.9496905 0.665175,0.74286 1.531677,1.114144 2.599841,1.114144 0.708873,0 1.335164,-0.170176 1.878955,-0.510046 0.54865,-0.339871 0.969069,-0.813155 1.260388,-1.420068 0.296172,-0.611767 0.443901,-1.300957 0.443901,-2.0680914 v -0.095085 c 0,-1.2332437 -0.332697,-2.2213009 -0.997872,-2.9641601 C 73.619902,6.1351552 72.753401,5.7638706 71.68038,5.7638708 Z m 4.857584,0.1457275 v 1.1141439 h 4.282426 l -4.347538,5.7753588 v 0.990637 h 6.255949 v -1.099675 h -4.610055 l 4.391463,-5.8265177 v -0.953947 z m 6.846094,0 2.811198,7.7928067 -0.187069,0.501261 -0.111621,0.299723 c -0.165079,0.490384 -0.376222,0.82784 -0.633553,1.012342 -0.252476,0.184501 -0.606586,0.276985 -1.062984,0.276985 l -0.364319,-0.02946 v 1.09244 l 0.502295,0.09508 0.255281,0.0217 c 1.068165,0 1.847459,-0.655358 2.337842,-1.966288 l 0.27957,-0.802535 2.888196,-8.2940677 H 88.657121 L 86.821574,11.816215 84.855286,5.9095983 Z M 46.575969,6.87078 c 0.67974,0 1.223581,0.2697997 1.631425,0.8087361 0.412699,0.5340825 0.619083,1.2333043 0.619083,2.0975464 0,0.9662025 -0.201625,1.7188065 -0.604614,2.2577435 -0.402989,0.534082 -0.94683,0.800985 -1.631425,0.800985 -0.67974,0 -1.223064,-0.264523 -1.630908,-0.79375 -0.402992,-0.529227 -0.604614,-1.230829 -0.604614,-2.1047815 0,-0.9856251 0.204005,-1.7435021 0.611849,-2.2727295 0.407844,-0.5292265 0.944028,-0.79375 1.609204,-0.79375 z m 25.104411,0 c 0.679743,0 1.22358,0.2697997 1.631425,0.8087361 0.412699,0.5340825 0.619083,1.2333043 0.619083,2.0975464 0,0.9662025 -0.201624,1.7188065 -0.604614,2.2577435 -0.402989,0.534082 -0.94683,0.800985 -1.631425,0.800985 -0.67974,0 -1.223581,-0.264523 -1.631425,-0.79375 -0.40299,-0.529227 -0.604097,-1.230829 -0.604097,-2.1047815 0,-0.9856251 0.203488,-1.7435021 0.611332,-2.2727295 0.407844,-0.5292265 0.944545,-0.79375 1.609721,-0.79375 z M 33.270321,6.90747 c 0.66032,0 1.179851,0.2573874 1.558561,0.7720459 0.378714,0.5146625 0.567924,1.216264 0.567924,2.1047811 0,1.009901 -0.19159,1.77202 -0.575159,2.286683 -0.378713,0.509806 -0.891104,0.764811 -1.536857,0.764811 -0.830256,0 -1.447026,-0.359389 -1.850016,-1.077971 V 7.9926753 C 31.842619,7.269237 32.45463,6.9074702 33.270321,6.90747 Z m 21.717537,0 c 0.8254,0 1.444552,0.3760441 1.857251,1.1286133 v 3.5977137 c -0.398134,0.77199 -1.022043,1.158069 -1.87172,1.158069 -0.655465,0 -1.165475,-0.252108 -1.529622,-0.75706 -0.364146,-0.509804 -0.54622,-1.209029 -0.54622,-2.0975467 0,-1.000191 0.184451,-1.7551716 0.553454,-2.2649781 C 53.820002,7.1624747 54.332394,6.90747 54.987858,6.90747 Z" />
    <text
       xml:space="preserve"
       transform="scale(0.26458333)"
       id="text539"
       style="font-style:normal;font-variant:normal;font-weight:normal;font-stretch:normal;font-size:14.6667px;font-family:Roboto;-inkscape-font-specification:'Roboto, Normal';font-variant-ligatures:normal;font-variant-caps:normal;font-variant-numeric:normal;font-variant-east-asian:normal;white-space:pre;shape-inside:url(#rect541);display:inline;opacity:0.98;fill:#0000ff;stroke-width:0.574517;stroke-linecap:square" />
    <text
       xml:space="preserve"
       transform="scale(0.26458333)"
       id="text664"
       style="font-style:normal;font-variant:normal;font-weight:normal;font-stretch:normal;font-size:14.6667px;font-family:Roboto;-inkscape-font-specification:'Roboto, Normal';font-variant-ligatures:normal;font-variant-caps:normal;font-variant-numeric:normal;font-variant-east-asian:normal;white-space:pre;shape-inside:url(#rect666);display:inline;opacity:0.98;fill:#0000ff;stroke-width:0.574517;stroke-linecap:square" />
    <text
       xml:space="preserve"
       transform="matrix(0.26458333,0,0,0.26458333,12.219447,-2.9307227)"
       id="text828"
       style="font-style:normal;font-variant:normal;font-weight:normal;font-stretch:normal;font-size:10.6667px;font-family:Roboto;-inkscape-font-specification:'Roboto, Normal';font-variant-ligatures:normal;font-variant-caps:normal;font-variant-numeric:normal;font-variant-east-asian:normal;white-space:pre;shape-inside:url(#rect830);display:inline;opacity:0.98;fill:#0000ff;stroke-width:0.574517;stroke-linecap:square"><tspan
         x="-43.75"
         y="36.583363"
         id="tspan1412">linia środkowa</tspan></text>
  </g>
</svg>
