<?xml version="1.0" encoding="UTF-8" standalone="no"?>
<!-- Created with Inkscape (http://www.inkscape.org/) -->

<svg
   width="14mm"
   height="14mm"
   viewBox="0 0 14 14"
   version="1.1"
   id="svg5"
   sodipodi:docname="overshoot.svg"
   inkscape:version="1.2.1 (9c6d41e410, 2022-07-14)"
   xmlns:inkscape="http://www.inkscape.org/namespaces/inkscape"
   xmlns:sodipodi="http://sodipodi.sourceforge.net/DTD/sodipodi-0.dtd"
   xmlns="http://www.w3.org/2000/svg"
   xmlns:svg="http://www.w3.org/2000/svg">
  <sodipodi:namedview
     id="namedview159"
     pagecolor="#505050"
     bordercolor="#eeeeee"
     borderopacity="1"
     inkscape:showpageshadow="0"
     inkscape:pageopacity="0"
     inkscape:pagecheckerboard="0"
     inkscape:deskcolor="#505050"
     inkscape:document-units="mm"
     showgrid="false"
     inkscape:zoom="11.313709"
     inkscape:cx="22.052893"
     inkscape:cy="28.637825"
     inkscape:window-width="1920"
     inkscape:window-height="1009"
     inkscape:window-x="1912"
     inkscape:window-y="-6"
     inkscape:window-maximized="1"
     inkscape:current-layer="svg5" />
  <defs
     id="defs2">
    <rect
       x="-43.75"
       y="27.25"
       width="450.25"
       height="77"
       id="rect830" />
    <rect
       x="-15"
       y="26.5"
       width="106.25"
       height="59.25"
       id="rect666" />
    <rect
       x="11.5"
       y="-1.25"
       width="172.5"
       height="86.25"
       id="rect541" />
    <rect
       x="89.777794"
       y="385.27158"
       width="365.65128"
       height="161.12437"
       id="rect316" />
    <rect
       x="134.07213"
       y="401.02728"
       width="176.28552"
       height="70.157478"
       id="rect310" />
    <rect
       x="90.966904"
       y="349.00375"
       width="442.34885"
       height="205.12144"
       id="rect304" />
    <rect
       x="177.77193"
       y="419.75577"
       width="118.31643"
       height="75.508476"
       id="rect298" />
    <rect
       x="230.09274"
       y="500.31796"
       width="82.345856"
       height="74.319366"
       id="rect292" />
    <rect
       x="218.7962"
       y="469.69839"
       width="240.2002"
       height="271.11703"
       id="rect236" />
  </defs>
  <text
     xml:space="preserve"
     transform="matrix(0.26458333,0,0,0.26458333,-48.850621,-9.9359571)"
     id="text234"
     style="font-style:normal;font-variant:normal;font-weight:normal;font-stretch:normal;font-size:14.6667px;font-family:Roboto;-inkscape-font-specification:'Roboto, Normal';font-variant-ligatures:normal;font-variant-caps:normal;font-variant-numeric:normal;font-variant-east-asian:normal;white-space:pre;shape-inside:url(#rect236);display:inline;opacity:0.98;fill:#0000ff;stroke-width:0.574517;stroke-linecap:square" />
  <text
     xml:space="preserve"
     transform="matrix(0.26458333,0,0,0.26458333,-48.850621,-9.9359571)"
     id="text290"
     style="font-style:normal;font-variant:normal;font-weight:normal;font-stretch:normal;font-size:14.6667px;font-family:Roboto;-inkscape-font-specification:'Roboto, Normal';font-variant-ligatures:normal;font-variant-caps:normal;font-variant-numeric:normal;font-variant-east-asian:normal;white-space:pre;shape-inside:url(#rect292);display:inline;opacity:0.98;fill:#0000ff;stroke-width:0.574517;stroke-linecap:square" />
  <text
     xml:space="preserve"
     transform="matrix(0.26458333,0,0,0.26458333,-48.850621,-9.9359571)"
     id="text296"
     style="font-style:normal;font-variant:normal;font-weight:normal;font-stretch:normal;font-size:14.6667px;font-family:Roboto;-inkscape-font-specification:'Roboto, Normal';font-variant-ligatures:normal;font-variant-caps:normal;font-variant-numeric:normal;font-variant-east-asian:normal;white-space:pre;shape-inside:url(#rect298);display:inline;opacity:0.98;fill:#0000ff;stroke-width:0.574517;stroke-linecap:square" />
  <text
     xml:space="preserve"
     transform="matrix(0.26458333,0,0,0.26458333,-48.850621,-9.9359571)"
     id="text302"
     style="font-style:normal;font-variant:normal;font-weight:normal;font-stretch:normal;font-size:14.6667px;font-family:Roboto;-inkscape-font-specification:'Roboto, Normal';font-variant-ligatures:normal;font-variant-caps:normal;font-variant-numeric:normal;font-variant-east-asian:normal;white-space:pre;shape-inside:url(#rect304);display:inline;opacity:0.98;fill:#0000ff;stroke-width:0.574517;stroke-linecap:square" />
  <text
     xml:space="preserve"
     transform="matrix(0.26458333,0,0,0.26458333,-48.850621,-9.9359571)"
     id="text308"
     style="font-style:normal;font-variant:normal;font-weight:normal;font-stretch:normal;font-size:14.6667px;font-family:Roboto;-inkscape-font-specification:'Roboto, Normal';font-variant-ligatures:normal;font-variant-caps:normal;font-variant-numeric:normal;font-variant-east-asian:normal;white-space:pre;shape-inside:url(#rect310);display:inline;opacity:0.98;fill:#0000ff;stroke-width:0.574517;stroke-linecap:square" />
  <rect
     style="opacity:0.98;fill:#1a1a1a;fill-opacity:1;stroke-width:0.0874559;stroke-linecap:square"
     id="rect528"
     width="15.393258"
     height="0.29404068"
     x="-0.55145454"
     y="10.870228" />
  <rect
     style="opacity:0.98;fill:#1a1a1a;fill-opacity:1;stroke-width:0.0874559;stroke-linecap:square"
     id="rect528-2"
     width="15.393258"
     height="0.29403973"
     x="-0.55145454"
     y="2.5788612" />
  <rect
     style="opacity:0.98;fill:#1a1a1a;stroke-width:0.0528262;stroke-linecap:square"
     id="rect528-2-3"
     width="15.393258"
     height="0.10728182"
     x="-0.55145454"
     y="0.04470636" />
  <rect
     style="opacity:0.98;fill:#1a1a1a;stroke-width:0.0528262;stroke-linecap:square"
     id="rect528-2-3-4"
     width="15.39325"
     height="0.059472878"
     x="-0.55145454"
     y="13.861619" />
  <path
     id="path2394"
     style="font-size:56.3735px;font-family:'Script MT Bold';-inkscape-font-specification:'Script MT Bold, Normal';white-space:pre;shape-inside:url(#rect316);opacity:0.98;fill:#000000;fill-opacity:1;stroke-width:0.152008;stroke-linecap:square"
     d="M 2.7285156 2.7243815 C 2.0342117 2.7243815 1.4150541 2.8921784 0.87126465 3.2271932 C 0.53555582 3.4358765 0.245244 3.699418 0 4.0173258 L 0 9.6092326 C 0.046045685 9.6679925 0.093343921 9.7258071 0.14314372 9.7818319 C 0.80831667 10.524689 1.6748243 10.895976 2.742985 10.895976 C 3.4518539 10.895976 4.0786664 10.725799 4.6224569 10.385929 C 5.1711041 10.046061 5.5910132 9.5727724 5.8823283 8.965861 C 6.1785024 8.3540958 6.3262288 7.6649022 6.3262288 6.8977702 L 6.3262288 6.8026855 C 6.3262288 5.5694457 5.9940456 4.5813822 5.3288737 3.8385254 C 4.6685548 3.0956684 3.8015326 2.7243815 2.7285156 2.7243815 z M 10.806059 2.7243815 C 9.8689901 2.7243815 9.1163839 3.0885291 8.5483154 3.8168213 C 7.9802492 4.5402554 7.6961711 5.516424 7.6961711 6.7448079 C 7.6961711 8.0266031 7.9802492 9.038975 8.5483154 9.7818319 C 9.1212389 10.524689 9.8690869 10.895976 10.791589 10.895976 C 11.723803 10.895976 12.459239 10.585207 12.998173 9.9637329 L 12.998173 10.641211 C 12.998173 10.827749 12.982321 11.00097 12.953731 11.164176 L 12.953215 11.164176 C 12.879085 11.587192 12.710471 11.9335 12.444202 12.199772 C 12.080056 12.568775 11.570044 12.753227 10.914579 12.753227 C 10.079473 12.753227 9.3731075 12.396217 8.7953288 11.682491 L 8.0961466 12.49071 C 8.382607 12.91312 8.7977567 13.245822 9.3415487 13.488582 C 9.8853389 13.731348 10.44108 13.852901 11.009147 13.852901 C 12.028754 13.852901 12.840017 13.558789 13.442074 12.971301 C 13.672925 12.747834 13.857898 12.491918 14.000179 12.205457 L 14.000179 2.870109 L 13.12168 2.870109 L 13.056567 3.7439575 C 12.517632 3.0642173 11.767406 2.7243815 10.806059 2.7243815 z M 2.7285156 3.8312907 C 3.4082535 3.8312907 3.9520978 4.101092 4.3599406 4.6400269 C 4.7726384 5.1741076 4.9790243 5.8733338 4.9790243 6.7375732 C 4.9790243 7.703773 4.7773978 8.4563811 4.37441 8.9953166 C 3.9714222 9.529397 3.4275779 9.7963013 2.742985 9.7963013 C 2.0632471 9.7963013 1.5199196 9.5317767 1.1120768 9.0025513 C 0.70908605 8.4733258 0.50746257 7.77172 0.50746257 6.8977702 C 0.50746257 5.9121481 0.71146875 5.1542666 1.1193115 4.6250407 C 1.5271543 4.0958157 2.0633417 3.8312907 2.7285156 3.8312907 z M 11.140405 3.867981 C 11.965802 3.867981 12.58496 4.2440274 12.997656 4.9965942 L 12.997656 8.5943075 C 12.599525 9.3662953 11.97561 9.7523763 11.125936 9.7523763 C 10.470474 9.7523763 9.9604593 9.5002673 9.5963135 8.9953166 C 9.2321684 8.4855141 9.0500936 7.7862852 9.0500936 6.8977702 C 9.0500936 5.8975822 9.2345461 5.1425969 9.6035482 4.6327922 C 9.972548 4.1229872 10.484944 3.867981 11.140405 3.867981 z " />
  <text
     xml:space="preserve"
     transform="matrix(0.26458333,0,0,0.26458333,-43.847355,-3.0394539)"
     id="text539"
     style="font-style:normal;font-variant:normal;font-weight:normal;font-stretch:normal;font-size:14.6667px;font-family:Roboto;-inkscape-font-specification:'Roboto, Normal';font-variant-ligatures:normal;font-variant-caps:normal;font-variant-numeric:normal;font-variant-east-asian:normal;white-space:pre;shape-inside:url(#rect541);display:inline;opacity:0.98;fill:#0000ff;stroke-width:0.574517;stroke-linecap:square" />
  <text
     xml:space="preserve"
     transform="matrix(0.26458333,0,0,0.26458333,-43.847355,-3.0394539)"
     id="text664"
     style="font-style:normal;font-variant:normal;font-weight:normal;font-stretch:normal;font-size:14.6667px;font-family:Roboto;-inkscape-font-specification:'Roboto, Normal';font-variant-ligatures:normal;font-variant-caps:normal;font-variant-numeric:normal;font-variant-east-asian:normal;white-space:pre;shape-inside:url(#rect666);display:inline;opacity:0.98;fill:#0000ff;stroke-width:0.574517;stroke-linecap:square" />
  <path
     id="rect528-2-8"
     style="opacity:1;fill:#0000ff;fill-opacity:1;stroke-width:0.04194371;stroke-linecap:square;stroke:none;stroke-opacity:1"
     d="m 2.7231091,2.7245895 c -0.3765342,0 -0.7306879,0.049702 -1.0629842,0.1483114 H 3.8145154 C 3.478108,2.7741836 3.1143128,2.7245895 2.7231091,2.7245895 Z m 8.0775429,0 c -0.345021,0 -0.664628,0.04958 -0.9596314,0.1483114 H 11.807309 C 11.502269,2.7741797 11.167028,2.7245895 10.800652,2.7245895 Z"
     sodipodi:nodetypes="sccssccs" />
  <path
     id="rect528-8"
     style="opacity:1;fill:#0000ff;fill-opacity:1;stroke-width:0.04194371;stroke-linecap:square;stroke:none;stroke-opacity:1"
     d="m 1.6551981,10.747726 c 0.3358409,0.09872 0.6983557,0.148312 1.0877889,0.148312 0.3816844,0 0.7393654,-0.04971 1.0733195,-0.148312 z m 8.1969157,0 c 0.2899282,0.09875 0.6030892,0.148312 0.9394772,0.148312 0.370796,0 0.709995,-0.04998 1.018543,-0.148312 z"
     sodipodi:nodetypes="cscccscc" />
</svg>
