<?xml version="1.0" encoding="UTF-8" standalone="no"?>
<!-- Created with Inkscape (http://www.inkscape.org/) -->

<svg
   width="120mm"
   height="20mm"
   viewBox="0 0 120 20"
   version="1.1"
   id="svg5"
   inkscape:version="1.2.1 (9c6d41e410, 2022-07-14)"
   sodipodi:docname="x-height.svg"
   inkscape:export-filename="teksrc.svg"
   inkscape:export-xdpi="96"
   inkscape:export-ydpi="96"
   xmlns:inkscape="http://www.inkscape.org/namespaces/inkscape"
   xmlns:sodipodi="http://sodipodi.sourceforge.net/DTD/sodipodi-0.dtd"
   xmlns="http://www.w3.org/2000/svg"
   xmlns:svg="http://www.w3.org/2000/svg">
  <sodipodi:namedview
     id="namedview7"
     pagecolor="#505050"
     bordercolor="#eeeeee"
     borderopacity="1"
     inkscape:showpageshadow="0"
     inkscape:pageopacity="0"
     inkscape:pagecheckerboard="0"
     inkscape:deskcolor="#505050"
     inkscape:document-units="mm"
     showgrid="false"
     inkscape:zoom="2.8284271"
     inkscape:cx="153.61895"
     inkscape:cy="45.961941"
     inkscape:window-width="1920"
     inkscape:window-height="1009"
     inkscape:window-x="1912"
     inkscape:window-y="-6"
     inkscape:window-maximized="1"
     inkscape:current-layer="layer1" />
  <defs
     id="defs2">
    <rect
       x="26.125"
       y="12.75"
       width="34.875"
       height="27.75"
       id="rect1649" />
    <rect
       x="-43.75"
       y="27.25"
       width="450.25"
       height="77"
       id="rect830" />
    <rect
       x="-15"
       y="26.5"
       width="106.25"
       height="59.25"
       id="rect666" />
    <rect
       x="11.5"
       y="-1.25"
       width="172.5"
       height="86.25"
       id="rect541" />
    <rect
       x="89.777794"
       y="385.27158"
       width="365.65128"
       height="161.12437"
       id="rect316" />
    <rect
       x="134.07213"
       y="401.02728"
       width="176.28552"
       height="70.157478"
       id="rect310" />
    <rect
       x="90.966904"
       y="349.00375"
       width="442.34885"
       height="205.12144"
       id="rect304" />
    <rect
       x="177.77193"
       y="419.75577"
       width="118.31643"
       height="75.508476"
       id="rect298" />
    <rect
       x="230.09274"
       y="500.31796"
       width="82.345856"
       height="74.319366"
       id="rect292" />
    <rect
       x="218.7962"
       y="469.69839"
       width="240.2002"
       height="271.11703"
       id="rect236" />
    <rect
       x="-43.75"
       y="27.25"
       width="450.25"
       height="77"
       id="rect830-3" />
  </defs>
  <g
     inkscape:label="Warstwa 1"
     inkscape:groupmode="layer"
     id="layer1">
    <rect
       style="opacity:0.98;fill:#0000ff;fill-opacity:0.2476415;stroke-width:0.152008;stroke-linecap:square"
       id="rect1860"
       width="81.407578"
       height="7.8747945"
       x="19.350382"
       y="5.9123549" />
    <text
       xml:space="preserve"
       transform="matrix(0.26458333,0,0,0.26458333,-5.0032654,-6.8965032)"
       id="text234"
       style="font-style:normal;font-variant:normal;font-weight:normal;font-stretch:normal;font-size:14.6667px;font-family:Roboto;-inkscape-font-specification:'Roboto, Normal';font-variant-ligatures:normal;font-variant-caps:normal;font-variant-numeric:normal;font-variant-east-asian:normal;white-space:pre;shape-inside:url(#rect236);display:inline;opacity:0.98;fill:#0000ff;stroke-width:0.574517;stroke-linecap:square" />
    <text
       xml:space="preserve"
       transform="matrix(0.26458333,0,0,0.26458333,-5.0032654,-6.8965032)"
       id="text290"
       style="font-style:normal;font-variant:normal;font-weight:normal;font-stretch:normal;font-size:14.6667px;font-family:Roboto;-inkscape-font-specification:'Roboto, Normal';font-variant-ligatures:normal;font-variant-caps:normal;font-variant-numeric:normal;font-variant-east-asian:normal;white-space:pre;shape-inside:url(#rect292);display:inline;opacity:0.98;fill:#0000ff;stroke-width:0.574517;stroke-linecap:square" />
    <text
       xml:space="preserve"
       transform="matrix(0.26458333,0,0,0.26458333,-5.0032654,-6.8965032)"
       id="text296"
       style="font-style:normal;font-variant:normal;font-weight:normal;font-stretch:normal;font-size:14.6667px;font-family:Roboto;-inkscape-font-specification:'Roboto, Normal';font-variant-ligatures:normal;font-variant-caps:normal;font-variant-numeric:normal;font-variant-east-asian:normal;white-space:pre;shape-inside:url(#rect298);display:inline;opacity:0.98;fill:#0000ff;stroke-width:0.574517;stroke-linecap:square" />
    <text
       xml:space="preserve"
       transform="matrix(0.26458333,0,0,0.26458333,-5.0032654,-6.8965032)"
       id="text302"
       style="font-style:normal;font-variant:normal;font-weight:normal;font-stretch:normal;font-size:14.6667px;font-family:Roboto;-inkscape-font-specification:'Roboto, Normal';font-variant-ligatures:normal;font-variant-caps:normal;font-variant-numeric:normal;font-variant-east-asian:normal;white-space:pre;shape-inside:url(#rect304);display:inline;opacity:0.98;fill:#0000ff;stroke-width:0.574517;stroke-linecap:square" />
    <text
       xml:space="preserve"
       transform="matrix(0.26458333,0,0,0.26458333,-5.0032654,-6.8965032)"
       id="text308"
       style="font-style:normal;font-variant:normal;font-weight:normal;font-stretch:normal;font-size:14.6667px;font-family:Roboto;-inkscape-font-specification:'Roboto, Normal';font-variant-ligatures:normal;font-variant-caps:normal;font-variant-numeric:normal;font-variant-east-asian:normal;white-space:pre;shape-inside:url(#rect310);display:inline;opacity:0.98;fill:#0000ff;stroke-width:0.574517;stroke-linecap:square" />
    <g
       id="g4802"
       transform="translate(5.0509014,-6.8904205)"
       style="fill:#1b1b1b;fill-opacity:0.98039216">
      <rect
         style="opacity:0.98;fill:#1b1b1b;stroke-width:0.0874559;stroke-linecap:square;fill-opacity:0.98039216"
         id="rect528"
         width="81.40757"
         height="0.41657153"
         x="14.29948"
         y="20.67757" />
      <rect
         style="opacity:0.98;fill:#0000ff;stroke-width:0.0874559;stroke-linecap:square;fill-opacity:0.98039216"
         id="rect528-2"
         width="81.40757"
         height="0.41657153"
         x="14.29948"
         y="12.386204" />
      <rect
         style="opacity:0.98;fill:#1b1b1b;stroke-width:0.0528262;stroke-linecap:square;fill-opacity:0.98039216"
         id="rect528-2-3"
         width="81.40757"
         height="0.15198819"
         x="14.29948"
         y="9.9298744" />
      <rect
         style="opacity:0.98;fill:#1b1b1b;stroke-width:0.0528262;stroke-linecap:square;fill-opacity:0.98039216"
         id="rect528-2-3-4"
         width="81.40757"
         height="0.15198819"
         x="14.29948"
         y="23.698978" />
    </g>
    <path
       id="text314"
       style="font-size:56.3735px;font-family:'Script MT Bold';-inkscape-font-specification:'Script MT Bold, Normal';white-space:pre;shape-inside:url(#rect316);opacity:0.98;fill:#000000;fill-opacity:1;stroke-width:0.152008;stroke-linecap:square"
       d="m 33.670813,5.7638708 c -0.975915,0 -1.738551,0.3398337 -2.287199,1.019576 l -0.06459,-0.8738485 h -1.231449 v 8.2940677 2.615861 h 1.347204 v -2.615861 -1.178739 c 0.548648,0.606911 1.301251,0.910538 2.257743,0.910538 0.937071,0 1.680157,-0.366525 2.228805,-1.099674 0.548647,-0.733149 0.822689,-1.699274 0.822689,-2.8985315 V 9.813236 c 0,-1.2720857 -0.276421,-2.2649013 -0.829924,-2.9786295 C 35.365438,6.1208802 34.617594,5.7638708 33.670813,5.7638708 Z m 7.996411,0 c -0.810836,0 -1.437122,0.352248 -1.878955,1.0562663 l -0.02119,-0.9105388 h -1.311031 v 7.8801397 h 1.347205 V 8.1962805 c 0.315594,-0.7525693 0.915194,-1.1286133 1.798856,-1.1286133 0.237908,0 0.459087,0.016673 0.663009,0.050643 V 5.8656734 C 42.129173,5.7977034 41.929927,5.7638708 41.667741,5.7638708 Z m 4.908745,0 c -0.694306,0 -1.31346,0.167796 -1.857251,0.5028117 -0.538938,0.3350146 -0.961225,0.8106816 -1.267106,1.427303 -0.30103,0.6166214 -0.451652,1.3110848 -0.451652,2.083077 v 0.094568 c 0,1.2235325 0.330318,2.2068315 0.990637,2.9496905 0.665175,0.74286 1.531677,1.114144 2.599841,1.114144 0.708871,0 1.33568,-0.170176 1.879472,-0.510046 0.548649,-0.339871 0.968555,-0.813155 1.259871,-1.420068 0.296175,-0.611767 0.443901,-1.300957 0.443901,-2.0680914 v -0.095085 c 0,-1.2332437 -0.332181,-2.2213009 -0.997355,-2.9641601 C 48.516006,6.1351554 47.648989,5.7638708 46.575969,5.7638708 Z m 8.077543,0 c -0.937071,0 -1.689673,0.3641455 -2.257743,1.0924398 -0.568068,0.7234362 -0.852145,1.6995988 -0.852145,2.9279866 0,1.2817988 0.284077,2.2941648 0.852145,3.0370238 0.572925,0.74286 1.320767,1.114144 2.243273,1.114144 0.932217,0 1.667647,-0.310766 2.206584,-0.932243 v 0.677479 c 0,0.186538 -0.01585,0.359756 -0.04444,0.522965 h -5.16e-4 c -0.07413,0.423016 -0.242741,0.769324 -0.509013,1.035596 -0.364146,0.369003 -0.874158,0.553454 -1.529623,0.553454 -0.835109,0 -1.54147,-0.357006 -2.11925,-1.070735 L 51.943602,15.5302 c 0.286461,0.42241 0.701609,0.755109 1.245402,0.997872 0.543792,0.242766 1.099528,0.364319 1.667598,0.364319 1.01961,0 1.83087,-0.294112 2.432927,-0.8816 0.481257,-0.46586 0.768524,-1.069555 0.868164,-1.807125 0.02601,-0.192577 0.04237,-0.391966 0.04237,-0.603064 V 5.9095983 h -1.230932 l -0.06511,0.8738485 C 56.365083,6.1037045 55.614862,5.7638708 54.653512,5.7638708 Z m 9.255766,0 c -0.971059,0 -1.75749,0.3789405 -2.359546,1.1363647 l -0.04341,-0.9906372 h -1.274858 v 7.8801397 h 1.347721 V 8.1745764 c 0.184502,-0.3787137 0.44137,-0.6847207 0.771529,-0.9177735 0.330158,-0.2330558 0.71386,-0.3493327 1.150835,-0.3493327 0.538939,0 0.934532,0.1358314 1.187007,0.4077271 0.257331,0.2718967 0.38892,0.691801 0.393775,1.2598714 v 5.2146693 h 1.347204 V 8.5823034 C 66.414957,6.7033053 65.574643,5.7638708 63.909278,5.7638708 Z m 7.771102,0 c -0.694306,0 -1.313459,0.167796 -1.857251,0.5028117 -0.538937,0.3350146 -0.961222,0.8106816 -1.267107,1.427303 -0.301026,0.6166214 -0.451652,1.3110848 -0.451652,2.083077 v 0.094568 c 0,1.2235325 0.330318,2.2068315 0.990638,2.9496905 0.665175,0.74286 1.531677,1.114144 2.599841,1.114144 0.708873,0 1.335164,-0.170176 1.878955,-0.510046 0.54865,-0.339871 0.969069,-0.813155 1.260388,-1.420068 0.296172,-0.611767 0.443901,-1.300957 0.443901,-2.0680914 v -0.095085 c 0,-1.2332437 -0.332697,-2.2213009 -0.997872,-2.9641601 C 73.619902,6.1351552 72.753401,5.7638706 71.68038,5.7638708 Z m 4.857584,0.1457275 v 1.1141439 h 4.282426 l -4.347538,5.7753588 v 0.990637 h 6.255949 v -1.099675 h -4.610055 l 4.391463,-5.8265177 v -0.953947 z m 6.846094,0 2.811198,7.7928067 -0.187069,0.501261 -0.111621,0.299723 c -0.165079,0.490384 -0.376222,0.82784 -0.633553,1.012342 -0.252476,0.184501 -0.606586,0.276985 -1.062984,0.276985 l -0.364319,-0.02946 v 1.09244 l 0.502295,0.09508 0.255281,0.0217 c 1.068165,0 1.847459,-0.655358 2.337842,-1.966288 l 0.27957,-0.802535 2.888196,-8.2940677 H 88.657121 L 86.821574,11.816215 84.855286,5.9095983 Z M 46.575969,6.87078 c 0.67974,0 1.223581,0.2697997 1.631425,0.8087361 0.412699,0.5340825 0.619083,1.2333043 0.619083,2.0975464 0,0.9662025 -0.201625,1.7188065 -0.604614,2.2577435 -0.402989,0.534082 -0.94683,0.800985 -1.631425,0.800985 -0.67974,0 -1.223064,-0.264523 -1.630908,-0.79375 -0.402992,-0.529227 -0.604614,-1.230829 -0.604614,-2.1047815 0,-0.9856251 0.204005,-1.7435021 0.611849,-2.2727295 0.407844,-0.5292265 0.944028,-0.79375 1.609204,-0.79375 z m 25.104411,0 c 0.679743,0 1.22358,0.2697997 1.631425,0.8087361 0.412699,0.5340825 0.619083,1.2333043 0.619083,2.0975464 0,0.9662025 -0.201624,1.7188065 -0.604614,2.2577435 -0.402989,0.534082 -0.94683,0.800985 -1.631425,0.800985 -0.67974,0 -1.223581,-0.264523 -1.631425,-0.79375 -0.40299,-0.529227 -0.604097,-1.230829 -0.604097,-2.1047815 0,-0.9856251 0.203488,-1.7435021 0.611332,-2.2727295 0.407844,-0.5292265 0.944545,-0.79375 1.609721,-0.79375 z M 33.270321,6.90747 c 0.66032,0 1.179851,0.2573874 1.558561,0.7720459 0.378714,0.5146625 0.567924,1.216264 0.567924,2.1047811 0,1.009901 -0.19159,1.77202 -0.575159,2.286683 -0.378713,0.509806 -0.891104,0.764811 -1.536857,0.764811 -0.830256,0 -1.447026,-0.359389 -1.850016,-1.077971 V 7.9926753 C 31.842619,7.269237 32.45463,6.9074702 33.270321,6.90747 Z m 21.717537,0 c 0.8254,0 1.444552,0.3760441 1.857251,1.1286133 v 3.5977137 c -0.398134,0.77199 -1.022043,1.158069 -1.87172,1.158069 -0.655465,0 -1.165475,-0.252108 -1.529622,-0.75706 -0.364146,-0.509804 -0.54622,-1.209029 -0.54622,-2.0975467 0,-1.000191 0.184451,-1.7551716 0.553454,-2.2649781 C 53.820002,7.1624747 54.332394,6.90747 54.987858,6.90747 Z" />
    <text
       xml:space="preserve"
       transform="scale(0.26458333)"
       id="text539"
       style="font-style:normal;font-variant:normal;font-weight:normal;font-stretch:normal;font-size:14.6667px;font-family:Roboto;-inkscape-font-specification:'Roboto, Normal';font-variant-ligatures:normal;font-variant-caps:normal;font-variant-numeric:normal;font-variant-east-asian:normal;white-space:pre;shape-inside:url(#rect541);display:inline;opacity:0.98;fill:#0000ff;stroke-width:0.574517;stroke-linecap:square" />
    <text
       xml:space="preserve"
       transform="scale(0.26458333)"
       id="text664"
       style="font-style:normal;font-variant:normal;font-weight:normal;font-stretch:normal;font-size:14.6667px;font-family:Roboto;-inkscape-font-specification:'Roboto, Normal';font-variant-ligatures:normal;font-variant-caps:normal;font-variant-numeric:normal;font-variant-east-asian:normal;white-space:pre;shape-inside:url(#rect666);display:inline;opacity:0.98;fill:#0000ff;stroke-width:0.574517;stroke-linecap:square" />
    <text
       xml:space="preserve"
       transform="matrix(0.26458333,0,0,0.26458333,114.50979,0.86386527)"
       id="text828"
       style="font-style:normal;font-variant:normal;font-weight:normal;font-stretch:normal;font-size:12px;font-family:Roboto;-inkscape-font-specification:'Roboto, Normal';font-variant-ligatures:normal;font-variant-caps:normal;font-variant-numeric:normal;font-variant-east-asian:normal;white-space:pre;shape-inside:url(#rect830);display:inline;opacity:0.98;fill:#0000ff;stroke-width:0.574517;stroke-linecap:square"><tspan
         x="-43.75"
         y="37.75"
         id="tspan1518">wysokość x</tspan></text>
    <text
       xml:space="preserve"
       transform="matrix(0.26458333,0,0,0.26458333,12.405277,-2.9307227)"
       id="text828-0"
       style="font-style:normal;font-variant:normal;font-weight:normal;font-stretch:normal;font-size:10.6667px;font-family:Roboto;-inkscape-font-specification:'Roboto, Normal';font-variant-ligatures:normal;font-variant-caps:normal;font-variant-numeric:normal;font-variant-east-asian:normal;white-space:pre;shape-inside:url(#rect830-3);display:inline;opacity:0.98;fill:#0000ff;stroke-width:0.574517;stroke-linecap:square"
       x="229.5"
       y="0"><tspan
         x="-43.75"
         y="36.583363"
         id="tspan1520">linia środkowa</tspan></text>
    <text
       xml:space="preserve"
       transform="scale(0.26458333)"
       id="text1647"
       style="font-style:normal;font-variant:normal;font-weight:normal;font-stretch:normal;font-size:12px;font-family:Roboto;-inkscape-font-specification:'Roboto, Normal';font-variant-ligatures:normal;font-variant-caps:normal;font-variant-numeric:normal;font-variant-east-asian:normal;white-space:pre;shape-inside:url(#rect1649);display:inline;opacity:0.98;fill:#0000ff;fill-opacity:0.980392;stroke-width:0.574517;stroke-linecap:square" />
    <path
       style="opacity:0.98;fill:#0000ff;fill-opacity:0.980392;stroke-width:0.152008;stroke-linecap:square"
       id="path1712"
       d="m 101.31769,6.0977638 c 0.14304,-0.00384 0.28751,0.017357 0.3999,0.1146855 0.03,0.025977 0.053,0.059026 0.0796,0.088539 0.0196,0.036581 0.0429,0.071401 0.0588,0.1097439 0.0779,0.1882807 0.0792,0.418978 0.0874,0.619815 -0.01,0.2843453 -0.0515,0.5663644 -0.0755,0.8497446 -0.0173,0.2271564 -0.0239,0.455133 -0.0181,0.6828522 0.0109,0.2480194 0.0385,0.4936832 0.10321,0.7335052 0.0422,0.1526556 0.0524,0.2113592 0.19747,0.273568 0.10529,0.058108 0.23334,0.055661 0.34034,0.1080419 0.0244,0.011943 0.0466,0.027857 0.07,0.041786 0.0393,0.2601465 0.11503,0.2398612 -0.0546,0.3593999 -0.0202,0.01425 -0.0452,0.02007 -0.0675,0.03076 -0.0469,0.02248 -0.0586,0.03947 -0.0891,0.08118 -0.0848,0.156997 -0.13032,0.329748 -0.15738,0.504996 -0.0206,0.157445 -0.0178,0.316667 -0.0178,0.475088 6.6e-4,0.229897 0.002,0.459793 0.002,0.68969 0.006,0.21157 1.4e-4,0.421284 -0.03,0.630796 -0.0401,0.231306 -0.10905,0.456053 -0.21378,0.666064 -0.10894,0.175528 -0.28326,0.284086 -0.4659,0.370162 -0.0664,0.03074 -0.13602,0.05289 -0.20593,0.07398 0,0 -0.11399,-0.383414 -0.11399,-0.383414 v 0 c 0.0518,-0.01508 0.10328,-0.03131 0.15249,-0.05384 0.10157,-0.0451 0.20321,-0.102851 0.27654,-0.187724 0.0881,-0.169829 0.13906,-0.35563 0.17477,-0.543024 0.0282,-0.190021 0.0308,-0.380281 0.0258,-0.572244 -4.5e-4,-0.230173 -0.001,-0.460347 -0.002,-0.690521 4e-5,-0.179402 -0.002,-0.359665 0.0227,-0.537782 0.0401,-0.247214 0.10719,-0.491555 0.24826,-0.7020045 0.0786,-0.086726 0.0761,-0.09621 0.1716,-0.1570389 0.0201,-0.012787 0.0423,-0.021966 0.0639,-0.031934 0.007,-0.00323 0.0251,-0.01461 0.0219,-0.0076 -0.0827,0.1790168 -0.0992,-0.1923236 0.0142,0.3021204 0.0128,0.0058 0.0277,0.0083 0.0383,0.01744 0.009,0.0074 -0.0211,-0.0084 -0.0318,-0.01186 -0.0188,-0.0061 -0.0378,-0.01166 -0.057,-0.01681 -0.0975,-0.026265 -0.0999,-0.02149 -0.19644,-0.057332 -0.034,-0.012613 -0.0669,-0.027716 -0.1004,-0.041574 -0.037,-0.020016 -0.0759,-0.036852 -0.11102,-0.060051 -0.16481,-0.1089349 -0.24662,-0.2809805 -0.29214,-0.4672453 -0.072,-0.2725584 -0.10538,-0.5452171 -0.11659,-0.8268306 -0.006,-0.2422961 5.3e-4,-0.484832 0.0194,-0.7265117 0.0227,-0.2668346 0.0596,-0.5324228 0.0744,-0.7998065 -0.007,-0.1653699 -0.0103,-0.3343222 -0.0576,-0.4941541 -0.0155,-0.039581 -0.0227,-0.045369 -0.0691,-0.05114 -0.039,-0.00486 -0.0592,-0.00351 -0.0993,-0.00351 0,0 0,-0.4 0,-0.4 z" />
  </g>
</svg>
